<mxfile host="app.diagrams.net" modified="2021-09-27T22:06:17.103Z" agent="5.0 (Windows NT 10.0; Win64; x64) AppleWebKit/537.36 (KHTML, like Gecko) Chrome/93.0.4577.82 Safari/537.36" etag="5rd11y3eBSpkLz7O1gG9" version="15.3.5" type="github">
  <diagram id="qemPZvNpyssAUF0mMIDs" name="Page-1">
    <mxGraphModel dx="2249" dy="798" grid="1" gridSize="10" guides="1" tooltips="1" connect="1" arrows="1" fold="1" page="1" pageScale="1" pageWidth="827" pageHeight="1169" math="0" shadow="0">
      <root>
        <mxCell id="0" />
        <mxCell id="1" parent="0" />
        <mxCell id="l9tMWQ5-sVlqTfUE8LL0-3" value="" style="endArrow=classic;html=1;startSize=14;endSize=14;sourcePerimeterSpacing=8;targetPerimeterSpacing=8;rounded=0;entryX=1;entryY=0.5;entryDx=0;entryDy=0;" edge="1" parent="1" source="l9tMWQ5-sVlqTfUE8LL0-1" target="l9tMWQ5-sVlqTfUE8LL0-2">
          <mxGeometry relative="1" as="geometry" />
        </mxCell>
        <mxCell id="l9tMWQ5-sVlqTfUE8LL0-1" value="&lt;font style=&quot;font-size: 22px&quot;&gt;&lt;b&gt;&lt;i&gt;Azure Cloud Service&lt;/i&gt;&lt;/b&gt;&lt;/font&gt;" style="rounded=1;whiteSpace=wrap;html=1;hachureGap=4;pointerEvents=0;fillColor=#dae8fc;strokeColor=#6c8ebf;strokeWidth=2;" vertex="1" parent="1">
          <mxGeometry x="317" y="190" width="194" height="100" as="geometry" />
        </mxCell>
        <mxCell id="l9tMWQ5-sVlqTfUE8LL0-6" value="" style="endArrow=classic;html=1;startSize=14;endSize=14;sourcePerimeterSpacing=8;targetPerimeterSpacing=8;rounded=0;entryX=1;entryY=0.5;entryDx=0;entryDy=0;exitX=0;exitY=0.5;exitDx=0;exitDy=0;" edge="1" parent="1" source="l9tMWQ5-sVlqTfUE8LL0-2" target="l9tMWQ5-sVlqTfUE8LL0-5">
          <mxGeometry relative="1" as="geometry">
            <Array as="points">
              <mxPoint y="240" />
              <mxPoint y="140" />
            </Array>
          </mxGeometry>
        </mxCell>
        <mxCell id="l9tMWQ5-sVlqTfUE8LL0-9" value="" style="edgeStyle=none;rounded=0;orthogonalLoop=1;jettySize=auto;html=1;startSize=14;endSize=14;sourcePerimeterSpacing=8;targetPerimeterSpacing=8;" edge="1" parent="1" source="l9tMWQ5-sVlqTfUE8LL0-2" target="l9tMWQ5-sVlqTfUE8LL0-8">
          <mxGeometry relative="1" as="geometry" />
        </mxCell>
        <mxCell id="l9tMWQ5-sVlqTfUE8LL0-2" value="&lt;font style=&quot;font-size: 18px&quot;&gt;&lt;b&gt;&lt;i&gt;Types of Cloud Services&lt;/i&gt;&lt;/b&gt;&lt;/font&gt;" style="whiteSpace=wrap;html=1;rounded=1;strokeColor=#6c8ebf;strokeWidth=2;fillColor=#dae8fc;hachureGap=4;" vertex="1" parent="1">
          <mxGeometry x="60" y="205" width="150" height="70" as="geometry" />
        </mxCell>
        <mxCell id="l9tMWQ5-sVlqTfUE8LL0-5" value="&lt;font style=&quot;font-size: 16px&quot;&gt;&lt;i&gt;Public Cloud&lt;/i&gt;&lt;/font&gt;" style="whiteSpace=wrap;html=1;rounded=1;strokeColor=#6c8ebf;strokeWidth=2;fillColor=#dae8fc;hachureGap=4;" vertex="1" parent="1">
          <mxGeometry x="-180" y="110" width="120" height="60" as="geometry" />
        </mxCell>
        <mxCell id="l9tMWQ5-sVlqTfUE8LL0-8" value="" style="whiteSpace=wrap;html=1;rounded=1;strokeColor=#6c8ebf;strokeWidth=2;fillColor=#dae8fc;hachureGap=4;" vertex="1" parent="1">
          <mxGeometry x="-180" y="210" width="120" height="60" as="geometry" />
        </mxCell>
      </root>
    </mxGraphModel>
  </diagram>
</mxfile>
